<svg width="67.759033" height="111.902344" viewBox="0 0 67.759 111.902" fill="none" xmlns="http://www.w3.org/2000/svg" xmlns:xlink="http://www.w3.org/1999/xlink">
	<desc>
			Created with Pixso.
	</desc>
	<defs>
		<filter id="filter_1156_1690_dd" x="0.000000" y="0.000000" width="67.759033" height="111.902344" filterUnits="userSpaceOnUse" color-interpolation-filters="sRGB">
			<feFlood flood-opacity="0" result="BackgroundImageFix"/>
			<feColorMatrix in="SourceAlpha" type="matrix" values="0 0 0 0 0 0 0 0 0 0 0 0 0 0 0 0 0 0 127 0" result="hardAlpha"/>
			<feOffset dx="0" dy="9.75316"/>
			<feGaussianBlur stdDeviation="3.25105"/>
			<feComposite in2="hardAlpha" operator="out" k2="-1" k3="1"/>
			<feColorMatrix type="matrix" values="0 0 0 0 0 0 0 0 0 0 0 0 0 0 0 0 0 0 0.09 0"/>
			<feBlend mode="normal" in2="BackgroundImageFix" result="effect_dropShadow_1"/>
			<feColorMatrix in="SourceAlpha" type="matrix" values="0 0 0 0 0 0 0 0 0 0 0 0 0 0 0 0 0 0 127 0" result="hardAlpha"/>
			<feOffset dx="0" dy="22.0729"/>
			<feGaussianBlur stdDeviation="4.44881"/>
			<feComposite in2="hardAlpha" operator="out" k2="-1" k3="1"/>
			<feColorMatrix type="matrix" values="0 0 0 0 0 0 0 0 0 0 0 0 0 0 0 0 0 0 0.051 0"/>
			<feBlend mode="normal" in2="effect_dropShadow_1" result="effect_dropShadow_2"/>
			<feColorMatrix in="SourceAlpha" type="matrix" values="0 0 0 0 0 0 0 0 0 0 0 0 0 0 0 0 0 0 127 0" result="hardAlpha"/>
			<feOffset dx="0" dy="39.526"/>
			<feGaussianBlur stdDeviation="5.30435"/>
			<feComposite in2="hardAlpha" operator="out" k2="-1" k3="1"/>
			<feColorMatrix type="matrix" values="0 0 0 0 0 0 0 0 0 0 0 0 0 0 0 0 0 0 0.012 0"/>
			<feBlend mode="normal" in2="effect_dropShadow_2" result="effect_dropShadow_3"/>
			<feColorMatrix in="SourceAlpha" type="matrix" values="0 0 0 0 0 0 0 0 0 0 0 0 0 0 0 0 0 0 127 0" result="hardAlpha"/>
			<feOffset dx="0" dy="61.5989"/>
			<feGaussianBlur stdDeviation="5.81767"/>
			<feComposite in2="hardAlpha" operator="out" k2="-1" k3="1"/>
			<feColorMatrix type="matrix" values="0 0 0 0 0 0 0 0 0 0 0 0 0 0 0 0 0 0 0 0"/>
			<feBlend mode="normal" in2="effect_dropShadow_3" result="effect_dropShadow_4"/>
			<feBlend mode="normal" in="SourceGraphic" in2="effect_dropShadow_4" result="shape"/>
		</filter>
		<clipPath id="clip1156_1691">
			<rect id="add-user 1" rx="0.000000" width="15.913043" height="15.913043" transform="translate(25.922922 8.467600)" fill="white" fill-opacity="0"/>
		</clipPath>
		<clipPath id="clip1156_1690">
			<rect id="Frame 17" rx="16.169704" width="32.339409" height="32.339409" transform="translate(17.709787 0.256662)" fill="white" fill-opacity="0"/>
		</clipPath>
	</defs>
	<g filter="url(#filter_1156_1690_dd)">
		<rect id="Frame 17" rx="16.169704" width="32.339409" height="32.339409" transform="translate(17.709787 0.256662)" fill="#FF5722" fill-opacity="1.000000"/>
		<g clip-path="url(#clip1156_1690)">
			<rect id="add-user 1" rx="0.000000" width="15.913043" height="15.913043" transform="translate(25.922922 8.467600)" fill="#FFFFFF" fill-opacity="0"/>
			<g clip-path="url(#clip1156_1691)">
				<path id="Vector" d="M32.16 16.8C34.05 16.8 35.56 15.27 35.56 13.36C35.56 11.45 34.05 9.92 32.16 9.92C30.28 9.92 28.77 11.45 28.77 13.36C28.77 15.27 30.28 16.8 32.16 16.8ZM32.16 18.48C29.39 18.48 27.03 18.92 27.03 20.69C27.03 22.46 29.38 22.92 32.16 22.92C34.93 22.92 37.3 22.48 37.3 20.71C37.3 18.94 34.95 18.48 32.16 18.48ZM39.28 14.77L40.1 14.77C40.44 14.77 40.72 15.05 40.72 15.39C40.72 15.74 40.44 16.01 40.1 16.01L39.28 16.01L39.28 16.82C39.28 17.17 39 17.44 38.66 17.44C38.33 17.44 38.05 17.17 38.05 16.82L38.05 16.01L37.23 16.01C36.89 16.01 36.61 15.74 36.61 15.39C36.61 15.05 36.89 14.77 37.23 14.77L38.05 14.77L38.05 13.96C38.05 13.62 38.33 13.34 38.66 13.34C39 13.34 39.28 13.62 39.28 13.96L39.28 14.77Z" fill="#FFFFFF" fill-opacity="1.000000" fill-rule="evenodd"/>
			</g>
		</g>
	</g>
</svg>
